<svg id="logo" viewBox="0 0 515 168" version="1.1" xmlns="http://www.w3.org/2000/svg" xmlns:xlink="http://www.w3.org/1999/xlink" xml:space="preserve" x="0px" y="0px" width="515px" height="168px"><g><path class="p0" d="M 133.0389 24.6118 L 123.0936 68.6076 L 113.1467 24.6118 L 112.5883 24.6118 L 72.0742 24.6118 L 71.5159 24.6118 L 61.606 68.4436 L 51.6979 24.6118 L 10.6237 24.6118 L 37.6042 143.9588 L 40.6537 143.9588 L 44.5353 143.9588 L 49.3993 143.9588 L 73.8145 143.9588 L 78.6767 143.9588 L 80.2668 143.9588 L 91.2226 95.4947 L 102.1785 143.9588 L 106.0601 143.9588 L 110.848 143.9588 L 135.3375 143.9588 L 140.1254 143.9588 L 144.007 143.9588 L 147.1325 143.9588 L 174.1113 24.6118 L 133.0389 24.6118 Z" fill="#ffffff" style="fill: rgb(119, 119, 119);"></path><path class="p1" d="M 347.5548 24.6841 L 320.129 143.9588 L 393.7933 143.9588 L 403.2103 103.1994 L 377.9346 103.1994 L 396.1448 24.6841 L 347.5548 24.6841 L 347.5548 24.6841 Z" fill="#ffffff" style="fill: rgb(119, 119, 119);"></path><path class="p2" d="M 432.0777 24.6841 L 404.4099 143.9588 L 452.8127 143.9588 L 461.2138 107.7276 L 490.7879 107.7276 L 498.6554 73.7641 L 469.1484 73.7641 L 472.0813 60.9118 L 501.6554 60.9118 L 510.0531 24.6841 L 432.0777 24.6841 L 432.0777 24.6841 Z" fill="#ffffff" style="fill: rgb(119, 119, 119);"></path><path class="p3" d="M 189.0972 9.4547 L 340.0018 9.4547 L 305.3463 160.1835 L 154.4435 160.1835 L 189.0972 9.4547 L 189.0972 9.4547 Z" fill="#ffffff" style="fill: rgb(119, 119, 119);"></path><path class="p4" d="M 182.3498 84.7847 C 182.3498 46.4853 215.5424 15.9294 254.765 20.2565 C 284.576 23.5459 308.6732 47.6165 311.9646 77.3941 C 316.2951 116.5706 285.7032 149.7206 247.3622 149.7206 C 211.4558 149.7206 182.3498 120.6506 182.3498 84.7847 L 182.3498 84.7847 L 182.3498 84.7847 Z" fill="#e40019"></path></g></svg>